<svg id="Ebene_1" data-name="Ebene 1" xmlns="http://www.w3.org/2000/svg" viewBox="0 0 690.25 191.77">
  <g>
    <path d="M336,225.23H255c-13.73,0-25.22,11.56-27.91,26.92a.13.13,0,0,1-.12.11h-6.42c-12,0-21.81,11.58-21.81,25.87v71.08c0,14.29,9.76,25.87,21.81,25.87H227a.13.13,0,0,1,.12.12c2.69,15.35,14.18,26.92,27.91,26.92h81c15.81,0,28.63-15.21,28.63-34v-109C364.64,240.43,351.82,225.23,336,225.23ZM347,368.16c0,7.16-4.9,13-10.94,13h-80.9c-6,0-10.93-5.81-10.93-13V363c0-4.94-3.38-8.94-7.54-8.94h-16.1c-2.27,0-4.12-2.2-4.12-4.89V278.13c0-2.69,1.85-4.89,4.11-4.89h16.11c4.16,0,7.54-4,7.54-8.93v-5.12c0-7.17,4.89-13,10.93-13H336c6,0,10.94,5.81,10.94,13Zm94.33-82H372.37a.14.14,0,0,1-.12-.15V257.37a.13.13,0,0,1,.12-.14h69.54c7.1,0,12.78,7.19,12.15,15.77C453.5,280.6,447.71,286.17,441.28,286.17Zm12.78,70.77c-.56,7.6-6.35,13.17-12.78,13.17H372.37a.13.13,0,0,1-.12-.14V341.32a.14.14,0,0,1,.12-.15h69.54C449,341.17,454.69,348.36,454.06,356.94ZM178,294.82h7.85c2.81,0,5.08,2.7,5.08,6v25.23c0,3.34-2.27,6-5.08,6H178c-2.81,0-5.08-2.7-5.08-6V300.86C172.92,297.52,175.19,294.82,178,294.82Zm-89.1.2h72.93c1.78,0,3.22,3.11,3.22,7v23.4c0,3.84-1.44,6.95-3.22,6.95H88.9c-1.78,0-3.22-3.11-3.22-6.95V302C85.68,298.13,87.12,295,88.9,295Z" transform="translate(-85.68 -218.93)" style="fill: #87b4e0"/>
    <path d="M770.55,296.17h-72c-2.55,0-4.74-2.41-5.25-5.76-3.31-21.3-11.08-38.25-23-38.25h-5.45c-2,0-3.9-1.55-4.77-4-6.51-18.53-15.74-28.92-26-28.92H527.19v.05a15,15,0,0,0-3-.34c-20.24,0-35.5,41.23-35.5,95.89s15.26,95.89,35.5,95.89a14.29,14.29,0,0,0,3-.34v.05H634c10.29,0,19.52-10.39,26-28.92.87-2.47,2.74-4,4.77-4h5.45c12,0,19.73-17,23-38.25.51-3.35,2.7-5.76,5.25-5.76h72c3,0,5.38-3.23,5.38-7.22V303.39C775.93,299.4,773.52,296.17,770.55,296.17ZM524.19,390.71c-8.4,0-20.6-29.57-20.6-75.89s12.2-75.88,20.6-75.88a5.19,5.19,0,0,1,3,1.15v.11h.17c8,6.09,17.43,33.86,17.43,74.62s-9.44,68.52-17.43,74.62h-.17v.11A5.21,5.21,0,0,1,524.19,390.71Zm144.18-34.22H654.25c-2.3,0-4.35,2-5.09,4.89l-.56,2.22C644.07,381.45,638,389.44,634,389.44H555.83c-3.92,0-6.46-5.41-4.88-10.23,5.49-16.77,8.75-39.15,8.75-64.39s-3.26-47.62-8.75-64.39c-1.58-4.82,1-10.23,4.88-10.23H634c4,0,10,8,14.56,25.84l.56,2.22c.74,2.92,2.79,4.89,5.09,4.89h14.1a4.92,4.92,0,0,1,4.23,2.74c2.92,5.27,6.93,18.1,6.93,38.93s-4,33.64-6.91,38.91A4.91,4.91,0,0,1,668.37,356.49ZM521.66,272.62c0-9.66,1.88-17.49,4.2-17.49s4.19,7.83,4.19,17.49-1.88,17.48-4.19,17.48S521.66,282.28,521.66,272.62Zm8.39,84.4c0,9.66-1.88,17.49-4.19,17.49s-4.2-7.83-4.2-17.49,1.88-17.48,4.2-17.48S530.05,347.37,530.05,357Z" transform="translate(-85.68 -218.93)" style="fill: #374052"/>
  </g>
</svg>
