<svg id="Layer_2_copy" data-name="Layer 2 copy" xmlns="http://www.w3.org/2000/svg" viewBox="0 0 171.23 183.15">
  <g>
    <path d="M77.72,43.92C77.65,57.4,68.51,69.2,55.9,73.58c-13.09,4.54-28.21.93-37.41-9.53a30.58,30.58,0,0,1-2.88-36.4C23,16,37.51,10.33,50.92,12.93,64,15.47,75,25.61,77.32,39a30.66,30.66,0,0,1,.4,5,1.5,1.5,0,0,0,3,0c-.08-14.86-10.15-27.73-24-32.55C42.63,6.49,26.1,10.5,16.26,21.8A33.63,33.63,0,0,0,13.1,61.85c8.15,12.7,23.77,18.77,38.45,16,14.2-2.68,26.38-14,28.72-28.48a35.33,35.33,0,0,0,.45-5.44A1.5,1.5,0,0,0,77.72,43.92Z" style="fill: #89b6e1"/>
    <path d="M44.86,24.76a14.17,14.17,0,0,1,2.06,0l1,.08a4.12,4.12,0,0,0,.59.07l-.42-.06.39.06a25.83,25.83,0,0,1,2.72.58c.5.13,1,.28,1.48.45l.73.25c.14.06,1.08.45.61.24s.32.15.47.22l.82.41c.56.3,1.11.62,1.64,1l.73.49.41.3c-.07-.05-.53-.44-.13-.1s1.06.89,1.55,1.38.89.95,1.32,1.44c.09.11.54.71.09.1l.27.37c.22.32.45.64.66,1a23.91,23.91,0,0,1,1.31,2.38c.09.19.18.39.26.59s.07.16,0-.11l.15.37c.17.48.35.95.5,1.43a28.58,28.58,0,0,1,.82,3.15,23.58,23.58,0,0,1,.44,3.1,3.08,3.08,0,0,0,3,3,3,3,0,0,0,3-3c-.71-7.85-3.58-15.27-10-20.13a26.54,26.54,0,0,0-13.59-4.94,17.32,17.32,0,0,0-2.79-.09,3.06,3.06,0,0,0-3,3,3,3,0,0,0,3,3Z" style="fill: #d7eaf8"/>
    <g>
      <g>
        <path d="M103.69,175.44a1,1,0,0,1-.25,0c-52-19.75-44.15-77.14-44.06-77.71.11-1.3.67-5.23,3.82-5.48,16.9-1.36,25.81-6,38.15-12.46l1.28-.67a2,2,0,0,1,.91-.19,3,3,0,0,1,1.32.31l3.77,2c9.19,5,17.12,9.3,34.72,11,3.54.33,4.13,2.8,4.18,4.24v.06l0,.14c.38,1.45,1.69,14.93-3.64,31.84a78,78,0,0,1-40,46.95A1.07,1.07,0,0,1,103.69,175.44Zm.24-91.95a1.26,1.26,0,0,0-.72.19C98.35,87.27,89.29,93.94,64.55,97c-.41,0-.61.34-.83,2-1.81,13.59,1.6,55.86,39.59,71.3a1.56,1.56,0,0,0,.55.09,1.24,1.24,0,0,0,.59-.13c20.36-11.42,29.86-29.48,34.25-42.63,5.08-15.22,4.84-27.77,4.32-30-.05-.23-.18-.76-.65-.78-14.35-.67-27.74-5.34-37.69-13.15A1.25,1.25,0,0,0,103.93,83.49Z" style="fill: #364052"/>
        <path d="M103.54,79.4a2.53,2.53,0,0,1,1.09.25c1.3.69,2.54,1.37,3.76,2,9.23,5,17.21,9.34,34.92,11,3,.28,3.67,2.2,3.72,3.76a1.16,1.16,0,0,0,0,.31c.61,2.32,1.25,16.09-3.63,31.57a77.47,77.47,0,0,1-39.69,46.62h-.13C83,167.1,69.31,152.39,63,131.22c-4.53-15.16-3.74-29.58-3.11-33.44a1.09,1.09,0,0,0,0-.13c.09-1.11.6-4.71,3.35-4.93,17-1.37,25.95-6,38.34-12.52l1.28-.67a1.61,1.61,0,0,1,.68-.13m.32,91.45a1.67,1.67,0,0,0,.83-.2c20.51-11.49,30.07-29.67,34.48-42.9,5.11-15.33,4.87-28,4.34-30.24-.18-.74-.55-1.14-1.12-1.16-14.25-.66-27.53-5.3-37.41-13a1.67,1.67,0,0,0-1-.32,1.71,1.71,0,0,0-1,.29c-4.83,3.56-13.82,10.18-38.43,13.2-.9.1-1.08,1-1.27,2.42-1.82,13.68,1.62,56.26,39.9,71.82a2.13,2.13,0,0,0,.74.13m-.32-92.45a2.45,2.45,0,0,0-1.14.25c-13.22,6.9-21.87,11.68-39.24,13.07-4,.32-4.25,5.78-4.27,5.9-.82,5-5.6,59.27,44.37,78.26a1.35,1.35,0,0,0,.43.06,1.13,1.13,0,0,0,.44-.07c47.74-24.24,45-75.3,43.9-79.37a4.65,4.65,0,0,0-4.63-4.81c-19.8-1.86-27.08-7-38.31-12.92a3.41,3.41,0,0,0-1.55-.37Zm.32,91.45a.93.93,0,0,1-.36-.06c-44.7-18.16-40-72.18-38.89-72.32,24.42-3,33.46-9.38,38.9-13.39a.82.82,0,0,1,.42-.09.8.8,0,0,1,.44.1c9.56,7.51,22.94,12.56,38,13.26,1.3.06,2.45,49.68-38.14,72.43a.69.69,0,0,1-.34.07Z" style="fill: #fff"/>
      </g>
      <path d="M70.42,103.16s20.94-2.36,33-11.62c3.21,2.3,17.37,10.71,32.44,11.37.12,3.7,1.45,39.46-32.8,60C99,160.52,69.63,148.78,70.42,103.16Z" style="fill: none;stroke: #879db5;stroke-miterlimit: 10;stroke-width: 2.8346457481384277px"/>
      <path d="M85.35,130.92l10.53,12c1.24,1.41,3.17.44,3.76-1,.13-.32-.12.28-.14.34.08-.17.15-.35.22-.53q.41-.91.84-1.83,1.43-3,3.06-6a60,60,0,0,1,10.88-14.66,22.2,22.2,0,0,1,8-5.08c2.74-.88,1.57-5.23-1.2-4.34-6.56,2.12-11.56,7.27-15.63,12.62A83.87,83.87,0,0,0,97,137c-.58,1.21-1.14,2.44-1.65,3.68l3.76-1-10.53-12c-1.91-2.18-5.09,1-3.18,3.18Z" style="fill: #1c7abd"/>
    </g>
    <path d="M69.43,88.51,67,78.71a1,1,0,0,0-1.54-.62,43.5,43.5,0,0,1-43.08-.42,1,1,0,0,0-1.54.57L14.65,101a1.19,1.19,0,0,0,1.2,1.47H55.72" style="fill: none;stroke: #364052;stroke-linecap: round;stroke-miterlimit: 10;stroke-width: 2.8346457481384277px"/>
    <g>
      <polyline points="89.34 30.47 131.72 30.47 131.72 82.56" style="fill: none;stroke: #4093ec;stroke-miterlimit: 10"/>
      <path d="M89.53,34.23a3.76,3.76,0,1,1,3.76-3.76A3.76,3.76,0,0,1,89.53,34.23Z" style="fill: #4093ec"/>
      <path d="M128,82.37a3.76,3.76,0,1,0,3.76-3.76A3.77,3.77,0,0,0,128,82.37Z" style="fill: #4093ec"/>
    </g>
    <g>
      <path d="M125.33,46.92l-1.08,0-.47,0-1-2.74a16.62,16.62,0,0,1-1.82-.44l-2.18,2-.44-.19a17.84,17.84,0,0,1-4.17-2.56l-.37-.3.77-2.83a13.76,13.76,0,0,1-1.22-1.43l-2.92.31-.24-.41a17.28,17.28,0,0,1-1.09-2.2,17.55,17.55,0,0,1-.78-2.32l-.12-.47,2.28-1.83a15,15,0,0,1-.15-1.88l-2.53-1.46,0-.48a17.82,17.82,0,0,1,1.15-4.75l.18-.45,2.92-.14a15.34,15.34,0,0,1,1-1.61L111.83,18l.31-.35a17.46,17.46,0,0,1,3.73-3.17l.4-.26,2.45,1.6.86-.39c.28-.12.57-.22.88-.33l.61-2.86.46-.11a17.82,17.82,0,0,1,4.88-.38l.48,0,1,2.74a14.34,14.34,0,0,1,1.83.44l2.17-2,.44.19a17.28,17.28,0,0,1,4.17,2.55l.37.3-.76,2.83a15.45,15.45,0,0,1,1.22,1.44l2.91-.31.24.41a16.78,16.78,0,0,1,1.87,4.52l.12.46-2.28,1.84a14.88,14.88,0,0,1,.15,1.88l2.54,1.46,0,.48a17.45,17.45,0,0,1-1.15,4.75l-.17.44-2.93.15a13.69,13.69,0,0,1-1,1.6l1.2,2.68-.32.36a17.65,17.65,0,0,1-3.72,3.17l-.41.26-2.45-1.6c-.29.14-.57.27-.86.38s-.57.23-.88.33l-.6,2.87-.47.1A17.49,17.49,0,0,1,125.33,46.92Z" style="fill: #fff;stroke: #fff;stroke-miterlimit: 10;stroke-width: 2px"/>
      <g>
        <path d="M125.33,46.35c-.35,0-.7,0-1,0l-.46,0-1-2.65a13.43,13.43,0,0,1-1.77-.43l-2.11,1.9-.42-.18a17.37,17.37,0,0,1-4-2.47l-.35-.3.74-2.73A15.84,15.84,0,0,1,113.68,38l-2.81.3-.24-.4a17.59,17.59,0,0,1-1.06-2.13,19.14,19.14,0,0,1-.75-2.25l-.11-.44,2.2-1.78a16.1,16.1,0,0,1-.14-1.82l-2.46-1.41,0-.46a17,17,0,0,1,1.11-4.6l.17-.43,2.83-.15a15.3,15.3,0,0,1,1-1.55l-1.16-2.59.31-.35a17,17,0,0,1,3.6-3.06l.39-.25,2.38,1.55c.28-.14.55-.27.83-.38s.55-.22.85-.32l.59-2.77.45-.1a16.61,16.61,0,0,1,4.71-.37l.47,0,1,2.65a16.27,16.27,0,0,1,1.77.43l2.1-1.9.42.19a17.37,17.37,0,0,1,4,2.47l.36.29-.74,2.74A14.42,14.42,0,0,1,137,20.56l2.82-.3.23.4a17.47,17.47,0,0,1,1.06,2.12,16.49,16.49,0,0,1,.75,2.25l.12.45-2.21,1.78a13.81,13.81,0,0,1,.14,1.82l2.46,1.41,0,.46a16.71,16.71,0,0,1-1.11,4.6L141,36l-2.83.14a12.85,12.85,0,0,1-.95,1.55l1.16,2.6-.31.34a16.82,16.82,0,0,1-3.6,3.07l-.39.25-2.37-1.55c-.29.14-.56.26-.83.37s-.56.22-.86.32l-.58,2.78L129,46A17,17,0,0,1,125.33,46.35Zm-.49-1.44a15.1,15.1,0,0,0,3.41-.27l.56-2.68.41-.12c.4-.13.77-.26,1.13-.41s.71-.31,1.09-.51l.37-.2,2.29,1.5A15.47,15.47,0,0,0,136.71,40l-1.12-2.5.26-.34a14.2,14.2,0,0,0,1.25-2l.19-.38,2.73-.14a15.93,15.93,0,0,0,.81-3.32l-2.38-1.37v-.42a13,13,0,0,0-.19-2.4l-.07-.41L140.33,25a16.24,16.24,0,0,0-.56-1.62,16.94,16.94,0,0,0-.75-1.55l-2.72.29-.24-.34a13.2,13.2,0,0,0-1.56-1.83l-.3-.3.71-2.64A15.55,15.55,0,0,0,132,15.17L130,17l-.4-.14a12.85,12.85,0,0,0-2.34-.56l-.42-.07-1-2.56a15.61,15.61,0,0,0-3.41.28l-.57,2.67-.4.13c-.41.13-.78.26-1.14.41a11.59,11.59,0,0,0-1.09.51l-.37.19-2.29-1.49A15.4,15.4,0,0,0,114,18.6l1.12,2.5-.25.33a13,13,0,0,0-1.26,2.06l-.18.37-2.74.14a15.39,15.39,0,0,0-.8,3.33l2.37,1.37v.42a13.76,13.76,0,0,0,.19,2.39l.07.42-2.13,1.72a14.08,14.08,0,0,0,.57,1.62,15.43,15.43,0,0,0,.74,1.54l2.72-.29.25.35a13,13,0,0,0,1.56,1.83l.3.29-.72,2.65a16.48,16.48,0,0,0,2.93,1.78l2-1.83.4.13a13.65,13.65,0,0,0,2.33.57l.42.06Zm.49-9a6.64,6.64,0,0,1-2.5-.5,6.52,6.52,0,0,1-3.52-8.53,6.44,6.44,0,0,1,3.53-3.53,6.53,6.53,0,0,1,5,12.06A6.6,6.6,0,0,1,125.33,35.86Zm0-11.62a5.09,5.09,0,1,0,2,9.79h0a5.09,5.09,0,0,0-2-9.79Z" style="fill: #c0d7f0;stroke: #c0d7f0;stroke-miterlimit: 10"/>
        <path d="M125.34,39.74a11.13,11.13,0,0,1-1.28-.08,10.44,10.44,0,1,1,11.63-9.09h0A10.45,10.45,0,0,1,125.34,39.74Zm0-19.45a9,9,0,1,0,1.12.07A8.53,8.53,0,0,0,125.31,20.29Z" style="fill: #c0d7f0;stroke: #c0d7f0;stroke-miterlimit: 10"/>
      </g>
    </g>
    <g>
      <path d="M151.44,56.15l-.95-1.59-.91-.06L148.44,56l-.44-.11a11.47,11.47,0,0,1-2.91-1.15l-.4-.23.17-1.84c-.25-.18-.48-.38-.71-.58l-1.78.5-.29-.35a10,10,0,0,1-.93-1.26,10.62,10.62,0,0,1-.75-1.37l-.19-.43,1.22-1.39a8.75,8.75,0,0,1-.23-.88l-1.74-.64,0-.46a11.22,11.22,0,0,1,.2-3.11l.09-.46,1.8-.4c.1-.29.22-.58.34-.86l-1-1.53.24-.39a11.21,11.21,0,0,1,2-2.41l.34-.31,1.7.73.38-.25.39-.24.07-1.85.43-.17a11,11,0,0,1,3-.78l.46-.05,1,1.59a7,7,0,0,1,.91.06l1.14-1.46.45.11a11.18,11.18,0,0,1,2.9,1.15l.4.22-.17,1.85a7.81,7.81,0,0,1,.71.58l1.78-.51.3.36a11.78,11.78,0,0,1,.92,1.25,10.75,10.75,0,0,1,.75,1.38l.19.42-1.22,1.39c.09.3.17.59.23.89l1.74.63,0,.46a11.29,11.29,0,0,1-.2,3.12l-.09.45-1.8.41c-.1.29-.22.58-.34.85l1,1.54-.24.39a10.87,10.87,0,0,1-2,2.4l-.34.31-1.7-.72-.38.25-.39.24-.07,1.84-.42.18a11.46,11.46,0,0,1-3,.78Z" style="fill: #fff;stroke: #fff;stroke-miterlimit: 10;stroke-width: 2px"/>
      <path d="M151.44,56.15l-.95-1.59-.91-.06L148.44,56l-.44-.11a11.47,11.47,0,0,1-2.91-1.15l-.4-.23.17-1.84c-.25-.18-.48-.38-.71-.58l-1.78.5-.29-.35a10,10,0,0,1-.93-1.26,10.62,10.62,0,0,1-.75-1.37l-.19-.43,1.22-1.39a8.75,8.75,0,0,1-.23-.88l-1.74-.64,0-.46a11.22,11.22,0,0,1,.2-3.11l.09-.46,1.8-.4c.1-.29.22-.58.34-.86l-1-1.53.24-.39a11.21,11.21,0,0,1,2-2.41l.34-.31,1.7.73.38-.25.39-.24.07-1.85.43-.17a11,11,0,0,1,3-.78l.46-.05,1,1.59a7,7,0,0,1,.91.06l1.14-1.46.45.11a11.18,11.18,0,0,1,2.9,1.15l.4.22-.17,1.85a7.81,7.81,0,0,1,.71.58l1.78-.51.3.36a11.78,11.78,0,0,1,.92,1.25,10.75,10.75,0,0,1,.75,1.38l.19.42-1.22,1.39c.09.3.17.59.23.89l1.74.63,0,.46a11.29,11.29,0,0,1-.2,3.12l-.09.45-1.8.41c-.1.29-.22.58-.34.85l1,1.54-.24.39a10.87,10.87,0,0,1-2,2.4l-.34.31-1.7-.72-.38.25-.39.24-.07,1.84-.42.18a11.46,11.46,0,0,1-3,.78Zm-.14-3,.89,1.5a9.67,9.67,0,0,0,1.76-.45l.06-1.74.38-.2a6.55,6.55,0,0,0,.65-.37c.21-.13.41-.27.62-.43l.33-.26,1.6.69a9.69,9.69,0,0,0,1.16-1.4l-1-1.44.19-.38a8.15,8.15,0,0,0,.55-1.4l.12-.4,1.7-.39a11,11,0,0,0,.12-1.81l-1.64-.6-.07-.41a8.45,8.45,0,0,0-.37-1.46l-.15-.4,1.15-1.31c-.14-.27-.29-.54-.45-.79a9,9,0,0,0-.52-.74l-1.68.48-.29-.3a8.1,8.1,0,0,0-1.16-1l-.35-.24.16-1.73a9.44,9.44,0,0,0-1.69-.67l-1.07,1.38-.42-.07a8.41,8.41,0,0,0-1.5-.1H150l-.89-1.49a8.92,8.92,0,0,0-1.76.45l-.06,1.74-.38.19c-.24.13-.45.25-.65.38s-.4.27-.62.43l-.33.26L143.7,38a10.18,10.18,0,0,0-1.16,1.39l1,1.45-.19.38a8.15,8.15,0,0,0-.55,1.4l-.12.4-1.7.39a10,10,0,0,0-.11,1.81l1.63.59.07.42a8.45,8.45,0,0,0,.37,1.46l.15.39-1.15,1.31a8.55,8.55,0,0,0,.45.79,7.71,7.71,0,0,0,.52.75l1.68-.48.29.3a8.82,8.82,0,0,0,1.16,1l.35.23-.16,1.74a10.25,10.25,0,0,0,1.69.67L149,53l.42.07a7.6,7.6,0,0,0,1.5.09Zm-.65-2.86a5.33,5.33,0,1,1,5.2-4.17,5.27,5.27,0,0,1-2.35,3.34h0A5.3,5.3,0,0,1,150.65,50.25Zm0-9.23a3.9,3.9,0,1,0,2.09,7.19h0A3.9,3.9,0,0,0,150.64,41Z" style="fill: #d7eaf8;stroke: #d7eaf8;stroke-miterlimit: 10"/>
    </g>
  </g>
</svg>
