<svg id="only_strokes_copy" data-name="only strokes copy" xmlns="http://www.w3.org/2000/svg" viewBox="0 0 200 200">
  <g>
    <path d="M74.67,140.22H176.79A18.86,18.86,0,0,1,195.73,159h0a18.87,18.87,0,0,1-18.94,18.79H95.13" style="fill: none;stroke: #556081;stroke-linecap: round;stroke-linejoin: round;stroke-width: 3.73971454927646px"/>
    <circle cx="112.27" cy="159.01" r="8.72" style="fill: #879db5"/>
    <circle cx="140.33" cy="159.01" r="8.72" style="fill: #879db5"/>
    <circle cx="168.38" cy="159.01" r="8.72" style="fill: #879db5"/>
    <g>
      <line x1="93.31" y1="52.94" x2="75.06" y2="86.62" style="fill: #fff;stroke: #364052;stroke-linecap: round;stroke-miterlimit: 10;stroke-width: 2.97554869774068px"/>
      <line x1="53.86" y1="66.03" x2="80.87" y2="41.59" style="fill: #fff;stroke: #364052;stroke-linecap: round;stroke-miterlimit: 10;stroke-width: 2.97554869774068px"/>
    </g>
    <path d="M109.75,48.88l12.59,10.26a20.42,20.42,0,0,0,18,28.85,20.7,20.7,0,0,0,5.43-.59l-1.08-.89C132,75.83,133.33,68,136.19,64c3.86-5.4,14.06-4.6,21.72,2.33a46.42,46.42,0,0,1,3.29,3.29c.05-.47.1-.95.11-1.43a20.38,20.38,0,0,0-32.39-17.06L116.31,40.83" style="fill: none;stroke: #364052;stroke-linecap: round;stroke-linejoin: round;stroke-width: 2.45480956218136px"/>
    <circle cx="98.61" cy="34.72" r="14.44" style="fill: none;stroke: #86b4df;stroke-miterlimit: 10;stroke-width: 2.59946540378188px"/>
    <circle cx="98.61" cy="34.72" r="10.76" style="fill: #1c7abd"/>
    <circle cx="98.61" cy="34.72" r="7.86" style="fill: #d7eaf8"/>
    <g>
      <path id="Shape" d="M123.84,123.68c-.26-1.64-4.1-2.94-8.8-2.94s-8.54,1.3-8.8,2.94h0V137.3h0c.26,1.64,4.1,2.94,8.8,2.94s8.54-1.3,8.8-2.94h0V123.68Z" style="fill: #fff;stroke: #000;stroke-miterlimit: 10;stroke-width: 1.13389989795719px"/>
      <path id="Shape-2" data-name="Shape" d="M115,135.83c-4.87,0-8.82-1.4-8.82-3.13v4.6h0c.26,1.64,4.1,2.94,8.8,2.94s8.54-1.3,8.8-2.94h0v-4.6C123.86,134.43,119.91,135.83,115,135.83Z" style="fill: #fff;stroke: #434c6d;stroke-miterlimit: 10;stroke-width: 1.13389989795719px"/>
      <path id="Shape-3" data-name="Shape" d="M106.22,132.52v.18a1.1,1.1,0,0,1,0-.18Z" style="fill: #fff;stroke: #434c6d;stroke-miterlimit: 10;stroke-width: 1.13389989795719px"/>
      <path id="Shape-4" data-name="Shape" d="M123.84,132.52a1.1,1.1,0,0,1,0,.18v-.18Z" style="fill: #fff;stroke: #434c6d;stroke-miterlimit: 10;stroke-width: 1.13389989795719px"/>
      <path id="Shape-5" data-name="Shape" d="M115,131.41c-4.87,0-8.82-1.4-8.82-3.13v4.6h0c.26,1.65,4.1,3,8.8,3s8.54-1.3,8.8-3h0v-4.6C123.86,130,119.91,131.41,115,131.41Z" style="fill: #fff;stroke: #556080;stroke-miterlimit: 10;stroke-width: 1.13389989795719px"/>
      <path id="Shape-6" data-name="Shape" d="M106.22,128.1v.18a1.1,1.1,0,0,1,0-.18Z" style="fill: #fff;stroke: #556080;stroke-miterlimit: 10;stroke-width: 1.13389989795719px"/>
      <path id="Shape-7" data-name="Shape" d="M123.84,128.1a1.1,1.1,0,0,1,0,.18v-.18Z" style="fill: #fff;stroke: #556080;stroke-miterlimit: 10;stroke-width: 1.13389989795719px"/>
      <path id="Shape-8" data-name="Shape" d="M115,127c-4.87,0-8.82-1.41-8.82-3.13v4.6h0c.26,1.64,4.1,2.94,8.8,2.94s8.54-1.3,8.8-2.94h0v-4.6C123.86,125.59,119.91,127,115,127Z" style="fill: #fff;stroke: #879db5;stroke-miterlimit: 10;stroke-width: 1.13389989795719px"/>
      <path id="Shape-9" data-name="Shape" d="M106.22,123.68v.19a1.23,1.23,0,0,1,0-.19Z" style="fill: #fff;stroke: #879db5;stroke-miterlimit: 10;stroke-width: 1.13389989795719px"/>
      <path id="Shape-10" data-name="Shape" d="M123.84,123.68a1.23,1.23,0,0,1,0,.19v-.19Z" style="fill: #fff;stroke: #879db5;stroke-miterlimit: 10;stroke-width: 1.13389989795719px"/>
      <ellipse id="Oval" cx="115.04" cy="123.87" rx="8.82" ry="3.13" style="fill: #fff;stroke: #c2ccda;stroke-miterlimit: 10;stroke-width: 1.13389989795719px"/>
    </g>
    <g>
      <path id="Shape-11" data-name="Shape" d="M145.85,123.68c-.27-1.64-4.11-2.94-8.8-2.94s-8.54,1.3-8.81,2.94h0V137.3h0c.27,1.64,4.11,2.94,8.81,2.94s8.53-1.3,8.8-2.94h0V123.68Z" style="fill: #fff;stroke: #000;stroke-miterlimit: 10;stroke-width: 1.13389989795719px"/>
      <path id="Shape-12" data-name="Shape" d="M137.05,135.83c-4.87,0-8.82-1.4-8.82-3.13v4.6h0c.27,1.64,4.11,2.94,8.81,2.94s8.53-1.3,8.8-2.94h0v-4.6C145.87,134.43,141.92,135.83,137.05,135.83Z" style="fill: #fff;stroke: #434c6d;stroke-miterlimit: 10;stroke-width: 1.13389989795719px"/>
      <path id="Shape-13" data-name="Shape" d="M128.23,132.52v.18a1.09,1.09,0,0,1,0-.18Z" style="fill: #fff;stroke: #434c6d;stroke-miterlimit: 10;stroke-width: 1.13389989795719px"/>
      <path id="Shape-14" data-name="Shape" d="M145.85,132.52a1.1,1.1,0,0,1,0,.18v-.18Z" style="fill: #fff;stroke: #434c6d;stroke-miterlimit: 10;stroke-width: 1.13389989795719px"/>
      <path id="Shape-15" data-name="Shape" d="M137.05,131.41c-4.87,0-8.82-1.4-8.82-3.13v4.6h0c.27,1.65,4.11,3,8.81,3s8.53-1.3,8.8-3h0v-4.6C145.87,130,141.92,131.41,137.05,131.41Z" style="fill: #fff;stroke: #556080;stroke-miterlimit: 10;stroke-width: 1.13389989795719px"/>
      <path id="Shape-16" data-name="Shape" d="M128.23,128.1v.18a1.09,1.09,0,0,1,0-.18Z" style="fill: #fff;stroke: #556080;stroke-miterlimit: 10;stroke-width: 1.13389989795719px"/>
      <path id="Shape-17" data-name="Shape" d="M145.85,128.1a1.1,1.1,0,0,1,0,.18v-.18Z" style="fill: #fff;stroke: #556080;stroke-miterlimit: 10;stroke-width: 1.13389989795719px"/>
      <path id="Shape-18" data-name="Shape" d="M137.05,127c-4.87,0-8.82-1.41-8.82-3.13v4.6h0c.27,1.64,4.11,2.94,8.81,2.94s8.53-1.3,8.8-2.94h0v-4.6C145.87,125.59,141.92,127,137.05,127Z" style="fill: #fff;stroke: #879db5;stroke-miterlimit: 10;stroke-width: 1.13389989795719px"/>
      <path id="Shape-19" data-name="Shape" d="M128.23,123.68v.19a1.21,1.21,0,0,1,0-.19Z" style="fill: #fff;stroke: #879db5;stroke-miterlimit: 10;stroke-width: 1.13389989795719px"/>
      <path id="Shape-20" data-name="Shape" d="M145.85,123.68a1.23,1.23,0,0,1,0,.19v-.19Z" style="fill: #fff;stroke: #879db5;stroke-miterlimit: 10;stroke-width: 1.13389989795719px"/>
      <ellipse id="Oval-2" data-name="Oval" cx="137.05" cy="123.87" rx="8.82" ry="3.13" style="fill: #fff;stroke: #c2ccda;stroke-miterlimit: 10;stroke-width: 1.13389989795719px"/>
    </g>
    <g>
      <path id="Shape-21" data-name="Shape" d="M168.76,123.68c-.27-1.64-4.11-2.94-8.81-2.94s-8.53,1.3-8.8,2.94h0V137.3h0c.27,1.64,4.1,2.94,8.8,2.94s8.54-1.3,8.81-2.94h0V123.68Z" style="fill: #fff;stroke: #000;stroke-miterlimit: 10;stroke-width: 1.13389989795719px"/>
      <path id="Shape-22" data-name="Shape" d="M160,135.83c-4.87,0-8.82-1.4-8.82-3.13v4.6h0c.27,1.64,4.1,2.94,8.8,2.94s8.54-1.3,8.81-2.94h0v-4.6C168.77,134.43,164.82,135.83,160,135.83Z" style="fill: #fff;stroke: #434c6d;stroke-miterlimit: 10;stroke-width: 1.13389989795719px"/>
      <path id="Shape-23" data-name="Shape" d="M151.13,132.52v.18a1.1,1.1,0,0,1,0-.18Z" style="fill: #fff;stroke: #434c6d;stroke-miterlimit: 10;stroke-width: 1.13389989795719px"/>
      <path id="Shape-24" data-name="Shape" d="M168.76,132.52a1.09,1.09,0,0,1,0,.18v-.18Z" style="fill: #fff;stroke: #434c6d;stroke-miterlimit: 10;stroke-width: 1.13389989795719px"/>
      <path id="Shape-25" data-name="Shape" d="M160,131.41c-4.87,0-8.82-1.4-8.82-3.13v4.6h0c.27,1.65,4.1,3,8.8,3s8.54-1.3,8.81-3h0v-4.6C168.77,130,164.82,131.41,160,131.41Z" style="fill: #fff;stroke: #556080;stroke-miterlimit: 10;stroke-width: 1.13389989795719px"/>
      <path id="Shape-26" data-name="Shape" d="M151.13,128.1v.18a1.1,1.1,0,0,1,0-.18Z" style="fill: #fff;stroke: #556080;stroke-miterlimit: 10;stroke-width: 1.13389989795719px"/>
      <path id="Shape-27" data-name="Shape" d="M168.76,128.1a1.09,1.09,0,0,1,0,.18v-.18Z" style="fill: #fff;stroke: #556080;stroke-miterlimit: 10;stroke-width: 1.13389989795719px"/>
      <path id="Shape-28" data-name="Shape" d="M160,127c-4.87,0-8.82-1.41-8.82-3.13v4.6h0c.27,1.64,4.1,2.94,8.8,2.94s8.54-1.3,8.81-2.94h0v-4.6C168.77,125.59,164.82,127,160,127Z" style="fill: #fff;stroke: #879db5;stroke-miterlimit: 10;stroke-width: 1.13389989795719px"/>
      <path id="Shape-29" data-name="Shape" d="M151.13,123.68v.19a1.23,1.23,0,0,1,0-.19Z" style="fill: #fff;stroke: #879db5;stroke-miterlimit: 10;stroke-width: 1.13389989795719px"/>
      <path id="Shape-30" data-name="Shape" d="M168.76,123.68a1.21,1.21,0,0,1,0,.19v-.19Z" style="fill: #fff;stroke: #879db5;stroke-miterlimit: 10;stroke-width: 1.13389989795719px"/>
      <ellipse id="Oval-3" data-name="Oval" cx="159.95" cy="123.87" rx="8.82" ry="3.13" style="fill: #fff;stroke: #c2ccda;stroke-miterlimit: 10;stroke-width: 1.13389989795719px"/>
    </g>
    <path d="M37.07,122.46l-32,49c-2.13,3.28.45,7.44,4.6,7.44H84.35c4.15,0,6.73-4.16,4.6-7.44L56.28,122.25" style="fill: none;stroke: #364052;stroke-linecap: round;stroke-miterlimit: 10;stroke-width: 3.58361198590996px"/>
    <circle cx="46.99" cy="94.24" r="24.34" style="fill: none;stroke: #86b4df;stroke-miterlimit: 10;stroke-width: 3.40769895493004px"/>
    <circle cx="46.99" cy="94.24" r="18.14" style="fill: #1c7abd"/>
    <circle cx="46.99" cy="94.24" r="15" style="fill: #d7eaf8"/>
    <g>
      <path id="Shape-31" data-name="Shape" d="M168.76,111.11c-.27-1.64-4.11-3-8.81-3s-8.53,1.31-8.8,3h0v13.62h0c.27,1.64,4.1,2.94,8.8,2.94s8.54-1.3,8.81-2.94h0V111.11Z" style="fill: #fff;stroke: #000;stroke-miterlimit: 10;stroke-width: 1.13389989795719px"/>
      <path id="Shape-32" data-name="Shape" d="M160,123.25c-4.87,0-8.82-1.4-8.82-3.13v4.61h0c.27,1.64,4.1,2.94,8.8,2.94s8.54-1.3,8.81-2.94h0v-4.61C168.77,121.85,164.82,123.25,160,123.25Z" style="fill: #fff;stroke: #434c6d;stroke-miterlimit: 10;stroke-width: 1.13389989795719px"/>
      <path id="Shape-33" data-name="Shape" d="M151.13,119.94v.18a1.1,1.1,0,0,1,0-.18Z" style="fill: #fff;stroke: #434c6d;stroke-miterlimit: 10;stroke-width: 1.13389989795719px"/>
      <path id="Shape-34" data-name="Shape" d="M168.76,119.94a1.09,1.09,0,0,1,0,.18v-.18Z" style="fill: #fff;stroke: #434c6d;stroke-miterlimit: 10;stroke-width: 1.13389989795719px"/>
      <path id="Shape-35" data-name="Shape" d="M160,118.84c-4.87,0-8.82-1.4-8.82-3.13v4.6h0c.27,1.64,4.1,2.94,8.8,2.94s8.54-1.3,8.81-2.94h0v-4.6C168.77,117.44,164.82,118.84,160,118.84Z" style="fill: #fff;stroke: #556080;stroke-miterlimit: 10;stroke-width: 1.13389989795719px"/>
      <path id="Shape-36" data-name="Shape" d="M151.13,115.52v.19a1.37,1.37,0,0,1,0-.19Z" style="fill: #fff;stroke: #556080;stroke-miterlimit: 10;stroke-width: 1.13389989795719px"/>
      <path id="Shape-37" data-name="Shape" d="M168.76,115.52a1.28,1.28,0,0,1,0,.19v-.19Z" style="fill: #fff;stroke: #556080;stroke-miterlimit: 10;stroke-width: 1.13389989795719px"/>
      <path id="Shape-38" data-name="Shape" d="M160,114.42c-4.87,0-8.82-1.4-8.82-3.13v4.6h0c.27,1.64,4.1,3,8.8,3s8.54-1.31,8.81-3h0v-4.6C168.77,113,164.82,114.42,160,114.42Z" style="fill: #fff;stroke: #879db5;stroke-miterlimit: 10;stroke-width: 1.13389989795719px"/>
      <path id="Shape-39" data-name="Shape" d="M151.13,111.11v.18a1.1,1.1,0,0,1,0-.18Z" style="fill: #fff;stroke: #879db5;stroke-miterlimit: 10;stroke-width: 1.13389989795719px"/>
      <path id="Shape-40" data-name="Shape" d="M168.76,111.11a1.09,1.09,0,0,1,0,.18v-.18Z" style="fill: #fff;stroke: #879db5;stroke-miterlimit: 10;stroke-width: 1.13389989795719px"/>
      <ellipse id="Oval-4" data-name="Oval" cx="159.95" cy="111.29" rx="8.82" ry="3.13" style="fill: #fff;stroke: #c2ccda;stroke-miterlimit: 10;stroke-width: 1.13389989795719px"/>
    </g>
  </g>
</svg>
